<?xml version="1.0" encoding="UTF-8" standalone="no"?>
<svg
   id="svg"
   version="1.1"
   width="286.50821"
   height="339.26309"
   viewBox="0 0 286.50821 339.26309"
   sodipodi:docname="iGeo-Logo.svg"
   inkscape:version="1.2.1 (9c6d41e410, 2022-07-14)"
   xmlns:inkscape="http://www.inkscape.org/namespaces/inkscape"
   xmlns:sodipodi="http://sodipodi.sourceforge.net/DTD/sodipodi-0.dtd"
   xmlns="http://www.w3.org/2000/svg"
   xmlns:svg="http://www.w3.org/2000/svg">
  <defs
     id="defs11" />
  <sodipodi:namedview
     id="namedview9"
     pagecolor="#ffffff"
     bordercolor="#000000"
     borderopacity="0.25"
     inkscape:showpageshadow="2"
     inkscape:pageopacity="0.0"
     inkscape:pagecheckerboard="0"
     inkscape:deskcolor="#d1d1d1"
     showgrid="false"
     inkscape:zoom="1.4125"
     inkscape:cx="84.247788"
     inkscape:cy="168.49558"
     inkscape:window-width="1366"
     inkscape:window-height="745"
     inkscape:window-x="1375"
     inkscape:window-y="2152"
     inkscape:window-maximized="1"
     inkscape:current-layer="svg" />
  <g
     id="g323"
     transform="translate(-58.601867,-32.031195)">
    <path
       id="path0"
       d="m 195.174,32.611 c -23.424,2.85 -39.947,18.468 -44.21,41.789 -2.676,14.64 5.636,36.771 29.452,78.413 11.507,20.12 12.841,21.587 19.64,21.587 5.502,0 8.108,-2.08 13.027,-10.4 28.55,-48.284 39.023,-74.069 36.096,-88.869 C 248.18,70.078 247.891,68.86 247.111,66.4 242.441,51.676 230.514,39.872 215,34.619 c -2.828,-0.958 -14.076,-2.829 -15.4,-2.562 -0.11,0.022 -2.102,0.272 -4.426,0.554 m 8.549,20.614 c 27.655,4.082 35.872,39.217 12.803,54.745 C 191.559,124.774 160.042,97.045 173.141,69.8 178.577,58.494 191.6,51.435 203.723,53.225 M 197.8,67.236 c -14.535,2.218 -18.819,20.724 -6.716,29.007 8.044,5.505 19.054,2.71 23.17,-5.881 1.572,-3.28 1.746,-3.994 1.746,-7.166 0,-10.021 -8.466,-17.445 -18.2,-15.96 m -58.583,57.215 c -5.631,0.944 -10.451,4.929 -11.933,9.865 -0.759,2.529 -1.012,3.827 -2.079,10.684 -0.24,1.54 -0.602,3.79 -0.806,5 -0.203,1.21 -0.569,3.46 -0.814,5 -0.245,1.54 -0.605,3.79 -0.799,5 -0.195,1.21 -0.549,3.46 -0.786,5 -0.237,1.54 -0.597,3.79 -0.8,5 -0.203,1.21 -0.556,3.415 -0.784,4.9 -0.229,1.485 -0.603,3.915 -0.832,5.4 -0.228,1.485 -0.581,3.69 -0.784,4.9 -0.203,1.21 -0.563,3.46 -0.8,5 -0.237,1.54 -0.597,3.79 -0.8,5 -0.203,1.21 -0.563,3.46 -0.8,5 -0.237,1.54 -0.597,3.79 -0.8,5 -0.203,1.21 -0.563,3.46 -0.8,5 -0.237,1.54 -0.597,3.79 -0.8,5 -0.348,2.074 -0.75,4.623 -1.611,10.2 -0.204,1.32 -0.556,3.485 -0.783,4.812 -1.395,8.171 4.314,15.889 12.827,17.339 3.764,0.642 147.423,0.635 151.134,-0.006 9.074,-1.569 14.781,-9.763 12.864,-18.468 -0.204,-0.922 -0.568,-3.027 -0.811,-4.677 -0.243,-1.65 -0.603,-3.99 -0.801,-5.2 -0.197,-1.21 -0.559,-3.46 -0.804,-5 -0.245,-1.54 -0.611,-3.79 -0.814,-5 -0.204,-1.21 -0.557,-3.415 -0.785,-4.9 -0.229,-1.485 -0.603,-3.915 -0.832,-5.4 -0.228,-1.485 -0.581,-3.69 -0.784,-4.9 -0.203,-1.21 -0.563,-3.46 -0.8,-5 -0.237,-1.54 -0.597,-3.79 -0.8,-5 -0.203,-1.21 -0.563,-3.46 -0.8,-5 -0.237,-1.54 -0.597,-3.79 -0.8,-5 -0.203,-1.21 -0.556,-3.415 -0.784,-4.9 -0.229,-1.485 -0.603,-3.915 -0.832,-5.4 -0.228,-1.485 -0.581,-3.69 -0.784,-4.9 -0.203,-1.21 -0.563,-3.46 -0.8,-5 -0.237,-1.54 -0.599,-3.79 -0.805,-5 -0.205,-1.21 -0.578,-3.55 -0.828,-5.2 -2.514,-16.614 -6.208,-19.573 -24.464,-19.592 l -7.497,-0.008 -2.603,5.194 c -3.469,6.924 -3.884,6.299 4.297,6.478 7.697,0.169 8.654,0.443 11.949,3.42 2.965,2.679 3.553,4.533 5.551,17.508 0.237,1.54 0.609,3.79 0.826,5 0.217,1.21 0.435,3.28 0.484,4.6 l 0.09,2.4 -2.6,0.131 c -10.219,0.516 -23.184,-2.792 -32.491,-8.289 -1.901,-1.123 -3.542,-2.042 -3.646,-2.042 -0.262,0 -5.063,8.58 -5.063,9.049 0,0.208 0.54,0.697 1.2,1.087 1.783,1.054 1.704,1.196 -4.953,8.923 -3.384,3.927 -8.09,9.391 -10.459,12.141 -8.581,9.963 -7.672,9.499 -10.384,5.295 -3.789,-5.876 -9.917,-10.849 -15.441,-12.529 -4.836,-1.471 -5.716,-1.566 -14.583,-1.566 -7.478,0 -8.98,-0.095 -8.98,-0.566 0,-0.484 3.714,-3.541 18.935,-15.585 1.356,-1.073 2.522,-2.098 2.591,-2.278 0.185,-0.481 -4.757,-9.171 -5.215,-9.171 -0.214,0 -8.156,6.209 -17.65,13.798 -19.998,15.986 -20.924,16.485 -19.891,10.706 0.226,-1.267 0.78,-4.644 1.23,-7.504 0.449,-2.86 0.987,-6.19 1.193,-7.4 0.207,-1.21 0.558,-3.37 0.782,-4.8 2.325,-14.904 2.802,-16.491 5.695,-18.967 3.322,-2.843 4.554,-3.182 12.23,-3.356 4.86,-0.11 6.895,-0.292 6.883,-0.617 -0.009,-0.253 -1.224,-2.8 -2.7,-5.66 l -2.683,-5.2 -8,-0.057 c -4.4,-0.032 -8.982,0.107 -10.183,0.308 M 236,175.645 c 7.94,2.548 11.647,3.142 21.788,3.493 l 7.587,0.262 0.465,1.8 c 0.255,0.99 0.683,3.33 0.95,5.2 0.267,1.87 0.821,5.38 1.231,7.8 0.41,2.42 0.798,5.39 0.862,6.6 l 0.117,2.2 -30.1,0.103 c -26.768,0.091 -30.1,0.034 -30.1,-0.509 0,-0.336 3.447,-4.612 7.659,-9.502 4.213,-4.891 9.477,-11.007 11.698,-13.592 4.442,-5.169 4.168,-5.035 7.843,-3.855 m -62.619,16.139 c 6.667,1.275 9.107,3.465 16.599,14.896 16.027,24.453 18.82,28.838 18.82,29.546 0,0.808 -67.255,0.836 -71,0.029 -7.865,-1.693 -11.419,-8.442 -9.508,-18.055 0.466,-2.346 0.822,-4.527 1.728,-10.6 0.246,-1.65 0.601,-3.81 0.789,-4.8 0.188,-0.99 0.556,-3.33 0.817,-5.2 0.262,-1.87 0.64,-4.075 0.84,-4.9 l 0.365,-1.5 h 18.749 c 14.775,0 19.396,0.124 21.801,0.584 m 98.05,24.616 c 1.829,8.964 1.302,12.3 -2.58,16.299 -3.855,3.973 -5.193,4.165 -28.028,4.019 l -18.577,-0.118 -7.122,-10.939 c -3.918,-6.016 -7.022,-11.102 -6.898,-11.302 0.132,-0.215 13.045,-0.322 31.49,-0.261 l 31.266,0.102 0.449,2.2 M 63.4,262.081 c -3.534,1.229 -5.636,5.564 -4.479,9.235 2.366,7.506 13.301,7.198 15.014,-0.424 1.341,-5.968 -4.549,-10.894 -10.535,-8.811 m -3.524,28.576 C 59.724,290.809 59.6,308.54 59.6,330.059 v 39.126 l 0.9,0.222 c 0.495,0.123 3.42,0.171 6.5,0.108 L 72.6,369.4 V 330 290.6 l -6.224,-0.11 c -3.423,-0.06 -6.348,0.015 -6.5,0.167"
       stroke="none"
       fill="#1e8bb2"
       fill-rule="evenodd" />
    <path
       id="path2"
       d="m 127.8,262.048 c -0.88,0.201 -2.5,0.556 -3.6,0.788 -14.007,2.959 -24.912,14.652 -28.794,30.875 -1.763,7.368 -2.613,29.986 -1.388,36.922 0.91,5.151 1.328,6.907 2.468,10.367 7.613,23.104 29.723,34.65 55.114,28.782 5.816,-1.344 7.363,-1.845 11.111,-3.598 4.835,-2.26 9.172,-5.638 11.745,-9.144 l 1.144,-1.56 v -19.06 c 0,-14.291 -0.12,-19.18 -0.48,-19.54 -0.56,-0.56 -36.958,-0.698 -37.832,-0.143 -0.384,0.244 -0.484,1.667 -0.4,5.694 l 0.112,5.369 12.3,0.106 12.3,0.106 v 11.96 11.96 l -1.82,1.602 c -5.414,4.766 -21.239,7.671 -28.98,5.319 -11.382,-3.458 -18.725,-11.521 -21.541,-23.653 -0.23,-0.99 -0.652,-2.79 -0.939,-4 -0.747,-3.16 -0.725,-27.078 0.029,-31.2 3.531,-19.304 15.052,-29.039 31.747,-26.823 11.535,1.53 17.864,7.269 21.07,19.106 0.616,2.275 0.439,2.231 7.657,1.904 l 6.377,-0.289 v -1.13 c 0,-4.027 -3.835,-13.466 -7.138,-17.568 -5.89,-7.313 -12.42,-11.03 -22.862,-13.014 -3.372,-0.641 -14.803,-0.731 -17.4,-0.138 m 95.6,27.175 c -4.356,0.932 -5.805,1.374 -8.2,2.5 -17.222,8.1 -25.363,29.248 -20.202,52.477 2.408,10.835 12.105,21.828 21.847,24.766 8.453,2.55 16.277,2.771 24.355,0.689 6.485,-1.671 15.304,-8.028 17.78,-12.817 l 0.609,-1.176 -3.495,-2.765 c -1.922,-1.52 -3.715,-2.892 -3.986,-3.049 -0.305,-0.177 -1.443,0.687 -3,2.279 -12.468,12.745 -32.011,9.821 -39.275,-5.876 -1.187,-2.565 -2.633,-8.657 -2.633,-11.094 0,-1.5 1.066,-1.557 29.259,-1.557 H 260.8 v -5.667 c 0,-17.815 -5.938,-30.042 -17.4,-35.832 -5.307,-2.68 -14.645,-4.024 -20,-2.878 m 79.2,0.19 c -13.319,2.507 -24.7,13.072 -27.561,25.587 -0.151,0.66 -0.452,1.92 -0.668,2.8 -1.373,5.58 -1.458,18.026 -0.162,23.6 0.359,1.54 0.753,3.25 0.878,3.8 1.357,6 6.837,14.106 13.101,19.377 1.514,1.274 6.668,3.897 9.012,4.586 0.99,0.292 2.25,0.678 2.8,0.86 4.025,1.328 14.272,1.324 18.4,-0.008 0.55,-0.177 1.81,-0.56 2.8,-0.852 2.119,-0.623 7.617,-3.355 8.668,-4.307 0.402,-0.365 1.522,-1.281 2.487,-2.036 5.337,-4.178 9.644,-12 12.011,-21.814 1.125,-4.665 0.944,-17.017 -0.338,-23.006 -0.791,-3.699 -0.974,-4.277 -2.402,-7.6 -6.765,-15.736 -22.36,-24.123 -39.026,-20.987 m -69.646,11.037 c 8.445,2.306 14.246,10.528 14.246,20.193 v 1.643 l -2.459,0.257 c -3.203,0.335 -29.716,0.333 -33.681,-0.002 L 208,322.283 v -1.399 c 0,-12.559 13.452,-23.575 24.954,-20.434 m 81.259,0.137 c 7.235,1.884 12.897,7.652 15.721,16.013 3.009,8.907 1.854,24.048 -2.47,32.4 -8.733,16.867 -32.743,13.772 -38.785,-5 -1.547,-4.805 -1.679,-5.857 -1.679,-13.4 0,-21.608 11.364,-34.141 27.213,-30.013"
       stroke="none"
       fill="#898989"
       fill-rule="evenodd" />
  </g>
</svg>
